<?xml version="1.0"?>
<svg version="1.1" xmlns="http://www.w3.org/2000/svg" width="800px" height="250px" style="border: dashed 2px #aaa"><path fill="#eb2142" d="M99.8046875,152.55859375l6.640625,0q9.76171875,0,14.41015625-3.25390625t4.6484375-10.2265625q0-6.90625-4.748046875-9.828125t-14.708984375-2.921875l-6.2421875,0l0,26.23046875z M99.8046875,169.29296875l0,37.25390625l-20.5859375,0l0-97.0859375l28.2890625,0q19.7890625,0,29.28515625,7.205078125t9.49609375,21.880859375q0,8.56640625-4.71484375,15.240234375t-13.34765625,10.458984375q21.9140625,32.73828125,28.5546875,42.30078125l-22.84375,0l-23.17578125-37.25390625l-10.95703125,0z M207.5003515625,145.3203125q-6.44140625,0-10.09375,4.083984375t-4.18359375,11.587890625l28.421875,0q-0.1328125-7.50390625-3.91796875-11.587890625t-10.2265625-4.083984375z M210.3558203125,207.875q-17.9296875,0-28.0234375-9.89453125t-10.09375-28.0234375q0-18.66015625,9.330078125-28.853515625t25.798828125-10.193359375q15.73828125,0,24.50390625,8.96484375t8.765625,24.76953125l0,9.828125l-47.87890625,0q0.33203125,8.6328125,5.11328125,13.48046875t13.4140625,4.84765625q6.70703125,0,12.68359375-1.39453125t12.484375-4.44921875l0,15.671875q-5.3125,2.65625-11.35546875,3.951171875t-14.7421875,1.294921875z M318.250703125,184.5q0,11.421875-7.935546875,17.3984375t-23.740234375,5.9765625q-8.1015625,0-13.8125-1.095703125t-10.69140625-3.220703125l0-16.734375q5.64453125,2.65625,12.716796875,4.44921875t12.451171875,1.79296875q11.0234375,0,11.0234375-6.375q0-2.390625-1.4609375-3.884765625t-5.046875-3.38671875t-9.5625-4.416015625q-8.56640625-3.5859375-12.583984375-6.640625t-5.84375-7.005859375t-1.826171875-9.728515625q0-9.89453125,7.669921875-15.306640625t21.748046875-5.412109375q13.4140625,0,26.09765625,5.84375l-6.109375,14.609375q-5.578125-2.390625-10.42578125-3.91796875t-9.89453125-1.52734375q-8.96484375,0-8.96484375,4.84765625q0,2.72265625,2.888671875,4.71484375t12.650390625,5.91015625q8.69921875,3.51953125,12.75,6.57421875t5.9765625,7.0390625t1.92578125,9.49609375z M365.5830859375,155.1484375l6.7734375,0q9.49609375,0,14.2109375-3.751953125t4.71484375-10.923828125q0-7.23828125-3.951171875-10.69140625t-12.384765625-3.453125l-9.36328125,0l0,28.8203125z M412.0674609375,139.7421875q0,15.671875-9.794921875,23.97265625t-27.857421875,8.30078125l-8.83203125,0l0,34.53125l-20.5859375,0l0-97.0859375l31.01171875,0q17.6640625,0,26.861328125,7.603515625t9.197265625,22.677734375z M485.29828125,206.546875l-3.91796875-10.09375l-0.53125,0q-5.11328125,6.44140625-10.525390625,8.931640625t-14.111328125,2.490234375q-10.69140625,0-16.833984375-6.109375t-6.142578125-17.3984375q0-11.8203125,8.267578125-17.431640625t24.935546875-6.208984375l12.8828125-0.3984375l0-3.25390625q0-11.2890625-11.5546875-11.2890625q-8.8984375,0-20.91796875,5.37890625l-6.70703125-13.6796875q12.81640625-6.70703125,28.421875-6.70703125q14.94140625,0,22.91015625,6.5078125t7.96875,19.7890625l0,49.47265625l-14.14453125,0z M479.32171875,172.1484375l-7.8359375,0.265625q-8.83203125,0.265625-13.1484375,3.1875t-4.31640625,8.8984375q0,8.56640625,9.828125,8.56640625q7.0390625,0,11.255859375-4.05078125t4.216796875-10.7578125l0-6.109375z M571.0798828125,130.91015625q4.1171875,0,6.83984375,0.59765625l-1.52734375,18.9921875q-2.45703125-0.6640625-5.9765625-0.6640625q-9.6953125,0-15.107421875,4.98046875t-5.412109375,13.9453125l0,37.78515625l-20.25390625,0l0-74.2421875l15.33984375,0l2.98828125,12.484375l0.99609375,0q3.453125-6.2421875,9.330078125-10.060546875t12.783203125-3.818359375z M652.545078125,184.5q0,11.421875-7.935546875,17.3984375t-23.740234375,5.9765625q-8.1015625,0-13.8125-1.095703125t-10.69140625-3.220703125l0-16.734375q5.64453125,2.65625,12.716796875,4.44921875t12.451171875,1.79296875q11.0234375,0,11.0234375-6.375q0-2.390625-1.4609375-3.884765625t-5.046875-3.38671875t-9.5625-4.416015625q-8.56640625-3.5859375-12.583984375-6.640625t-5.84375-7.005859375t-1.826171875-9.728515625q0-9.89453125,7.669921875-15.306640625t21.748046875-5.412109375q13.4140625,0,26.09765625,5.84375l-6.109375,14.609375q-5.578125-2.390625-10.42578125-3.91796875t-9.89453125-1.52734375q-8.96484375,0-8.96484375,4.84765625q0,2.72265625,2.888671875,4.71484375t12.650390625,5.91015625q8.69921875,3.51953125,12.75,6.57421875t5.9765625,7.0390625t1.92578125,9.49609375z M708.4438671875,145.3203125q-6.44140625,0-10.09375,4.083984375t-4.18359375,11.587890625l28.421875,0q-0.1328125-7.50390625-3.91796875-11.587890625t-10.2265625-4.083984375z M711.2993359375,207.875q-17.9296875,0-28.0234375-9.89453125t-10.09375-28.0234375q0-18.66015625,9.330078125-28.853515625t25.798828125-10.193359375q15.73828125,0,24.50390625,8.96484375t8.765625,24.76953125l0,9.828125l-47.87890625,0q0.33203125,8.6328125,5.11328125,13.48046875t13.4140625,4.84765625q6.70703125,0,12.68359375-1.39453125t12.484375-4.44921875l0,15.671875q-5.3125,2.65625-11.35546875,3.951171875t-14.7421875,1.294921875z"/><path fill="#" d=""/></svg>
